<?xml version="1.0" standalone="no"?>
<!DOCTYPE svg PUBLIC "-//W3C//DTD SVG 20010904//EN"
 "http://www.w3.org/TR/2001/REC-SVG-20010904/DTD/svg10.dtd">
<svg version="1.0" xmlns="http://www.w3.org/2000/svg"
 width="525.000000pt" height="84.000000pt" viewBox="0 0 525.000000 84.000000"
 preserveAspectRatio="xMidYMid meet">

<g transform="translate(0.000000,84.000000) scale(0.100000,-0.100000)"
fill="#624cf5" stroke="none">
<path d="M626 743 c-16 -32 -60 -75 -93 -92 -31 -16 -29 -22 17 -49 23 -13 50
-41 66 -67 14 -25 30 -45 34 -45 5 0 19 18 32 41 13 24 41 51 65 66 24 14 43
29 43 33 0 18 -22 21 -34 5 -12 -17 -13 -17 -19 1 -4 10 -16 33 -27 49 -10 17
-26 42 -35 58 -9 15 -20 27 -25 27 -5 0 -16 -12 -24 -27z"/>
<path d="M280 623 c-34 -64 -117 -152 -179 -188 -28 -16 -51 -37 -51 -45 0 -8
19 -26 42 -39 55 -31 124 -96 162 -152 l31 -46 48 14 c26 7 47 18 47 23 0 19
110 126 159 155 28 17 51 37 51 45 0 9 -24 30 -54 48 -61 36 -143 121 -178
184 -32 58 -48 58 -78 1z"/>
<path d="M1158 603 c-33 -5 -33 -6 -11 -39 13 -21 16 -44 13 -123 -9 -232 -8
-252 22 -274 38 -29 73 -16 140 52 72 74 138 205 145 290 5 51 3 61 -16 80
-12 12 -32 21 -43 19 -24 -3 -54 -41 -63 -79 -6 -23 -1 -30 29 -49 42 -25 41
-39 -5 -131 -46 -93 -109 -146 -125 -104 -3 8 1 78 9 157 9 79 13 158 10 176
-5 30 -8 32 -42 31 -20 -1 -48 -4 -63 -6z"/>
<path d="M1543 603 c-27 -5 -27 -3 -8 -39 8 -16 12 -37 10 -49 -2 -11 -18 -82
-36 -157 -34 -150 -33 -182 7 -200 22 -10 33 -8 70 11 49 26 61 56 19 45 -22
-5 -25 -3 -25 20 0 15 16 96 35 182 20 86 33 164 30 175 -6 19 -43 23 -102 12z"/>
<path d="M1784 596 c-17 -8 -39 -24 -48 -37 -32 -46 -18 -93 64 -220 45 -70
53 -121 21 -138 -16 -9 -21 -6 -31 18 -6 16 -22 39 -34 50 l-23 22 -32 -36
c-17 -20 -31 -39 -31 -44 0 -4 12 -18 26 -32 53 -50 191 -21 222 46 19 42 14
86 -18 144 l-30 55 29 30 c63 67 65 117 6 142 -42 17 -80 17 -121 0z m116 -41
c16 -19 5 -50 -27 -75 -30 -23 -46 -16 -62 30 -8 23 -7 33 5 45 20 19 68 19
84 0z"/>
<path d="M2047 603 c-13 -3 -16 -10 -11 -21 17 -40 14 -75 -15 -199 -17 -72
-31 -147 -31 -166 0 -47 24 -71 64 -63 55 11 108 66 56 58 -17 -3 -20 3 -20
37 0 22 11 86 25 143 14 57 28 129 32 161 l6 57 -44 -1 c-24 -1 -52 -3 -62 -6z"/>
<path d="M2332 589 c-81 -41 -134 -140 -135 -253 -2 -138 74 -208 191 -176 97
25 162 126 169 260 5 83 -11 127 -60 164 -39 29 -113 32 -165 5z m94 -27 c49
-32 45 -222 -7 -323 -27 -54 -76 -66 -103 -27 -21 30 -22 186 -1 255 23 77 73
121 111 95z"/>
<path d="M2668 603 c-21 -5 -21 -7 -7 -47 9 -26 5 -61 -25 -206 -20 -96 -36
-178 -36 -182 0 -9 61 -11 84 -2 9 3 16 17 16 31 0 13 14 88 32 165 30 131 34
142 62 159 39 24 73 24 80 1 4 -10 -7 -84 -24 -165 -33 -160 -31 -191 14 -203
17 -4 39 2 67 18 45 24 50 45 10 40 -23 -3 -23 -2 -16 45 4 26 16 86 27 133
30 125 29 177 -2 202 -31 25 -77 19 -131 -17 -21 -14 -41 -25 -44 -25 -3 0 -5
14 -5 30 0 29 -2 30 -42 29 -24 -1 -51 -3 -60 -6z"/>
<path d="M3294 592 c-51 -25 -99 -82 -120 -146 -20 -60 -23 -172 -5 -206 22
-42 62 -79 93 -86 42 -9 109 12 152 48 30 24 34 33 25 44 -10 13 -14 13 -28 0
-25 -22 -73 -38 -98 -31 -35 8 -53 55 -53 137 0 126 38 210 98 216 31 3 32 2
32 -38 0 -34 4 -42 26 -50 39 -15 53 -12 66 15 35 77 -91 142 -188 97z"/>
<path d="M3595 603 c-52 -6 -63 -17 -41 -42 21 -23 19 -36 -25 -238 -16 -73
-29 -140 -29 -148 0 -11 11 -15 38 -15 42 0 62 14 62 43 0 10 7 50 16 88 21
92 40 90 66 -4 35 -128 61 -153 130 -124 29 12 37 12 53 1 25 -19 35 -7 64 72
22 61 23 62 67 69 71 10 81 3 86 -62 6 -69 34 -98 83 -89 59 12 105 65 50 58
-31 -4 -32 2 -40 198 -9 218 -2 204 -93 196 -41 -3 -77 -8 -79 -10 -3 -2 0
-14 7 -25 9 -18 3 -39 -35 -129 -96 -225 -136 -273 -175 -209 -11 17 -28 56
-37 85 l-17 52 36 33 c42 38 64 103 50 145 -17 53 -87 70 -237 55z m139 -49
c22 -58 -17 -146 -68 -152 -21 -3 -27 0 -24 10 3 7 11 46 18 86 13 69 14 72
41 72 15 0 29 -7 33 -16z m346 -109 l0 -105 -50 0 c-27 0 -50 3 -50 7 0 16 85
202 93 203 4 0 7 -47 7 -105z"/>
<path d="M4347 602 c-32 -3 -37 -6 -31 -20 17 -40 14 -86 -15 -226 -40 -194
-40 -196 3 -196 53 0 66 9 66 43 0 17 5 59 11 94 l11 63 69 0 c62 0 69 2 69
20 0 18 -7 20 -66 20 -57 0 -65 2 -60 18 3 9 10 45 17 80 l12 63 71 -3 c67 -3
71 -2 74 19 3 21 -1 22 -95 25 -54 2 -115 2 -136 0z"/>
<path d="M4597 603 c-11 -18 5 -54 22 -49 53 16 91 17 96 5 2 -8 -13 -99 -34
-204 l-39 -190 31 -3 c64 -7 73 1 81 75 3 38 19 124 35 193 l28 125 54 0 c48
0 54 2 57 23 3 20 0 22 -50 22 -29 0 -103 3 -164 6 -68 4 -113 3 -117 -3z"/>
<path d="M612 232 c-17 -21 -47 -47 -66 -57 -40 -22 -46 -40 -17 -50 34 -10
71 -46 91 -86 22 -42 37 -49 47 -21 13 35 46 74 84 98 21 13 39 28 39 32 0 5
-16 16 -35 25 -19 9 -47 35 -62 56 -16 22 -33 40 -40 41 -6 0 -25 -17 -41 -38z"/>
<path d="M307 142 c-15 -6 -16 -10 -4 -26 13 -17 14 -17 30 -1 30 30 17 44
-26 27z"/>
</g>
</svg>
